<svg width="100" height="100" viewBox="0 0 100 100" xmlns="http://www.w3.org/2000/svg"><path fill="none" d="M67.22 16.68h.3m-4.1-.62l.29-.01"/><path fill="#A9A09F" d="M18.11 78.69L50 97.32l31.89-18.63V20.74L50 17.45l-31.89 3.29z"/><path fill="#4751A2" d="M63.46 78.77L41.81 66.32l-6.94 10.3zm-19.84-3.61c-.46 2.9-7.18 4.54-15.95 2.52-7.04-1.62-11.32-4.5-10.87-7.4.46-2.9 5.38-3.67 12.52-2.54s14.76 4.52 14.3 7.42zm8.4-7.77L36.67 52.74l-4.25.29-14.94 1.94.18 7.74 18.19 7.57z"/><path fill="none" d="M66.01 36.64l.52 1.25"/><path fill="#fff" d="M16.8 55.28l64.16-8.66"/><path fill="#151841" d="M80.873 45.974l.174 1.288-64.157 8.656-.174-1.288zM50 100L16 80.14V19.5L50 16l34 3.5v60.64L50 100zM19.04 78.44L50 96.53l30.96-18.09V22.19L50 19l-30.96 3.19v56.25z"/><path fill="#fff" d="M36.89 31.46h25v33.83h-25z"/><path fill="#151841" d="M62.53 65.94h-26.3V30.81h26.3v35.13zm-24.99-1.3h23.7V32.11h-23.7v32.53z"/><ellipse cx="49.39" cy="31.46" fill="#fff" rx="12.5" ry="3.48"/><path fill="#151841" d="M49.39 35.59c-6.53 0-13.15-1.42-13.15-4.13s6.61-4.13 13.15-4.13 13.15 1.42 13.15 4.13-6.62 4.13-13.15 4.13zm0-6.97c-7.23 0-11.85 1.68-11.85 2.83s4.62 2.83 11.85 2.83 11.85-1.68 11.85-2.83-4.62-2.83-11.85-2.83z"/><path fill="#fff" d="M72.55 55.75l-23.57-9.82-9.55 19.47 23.92 12.67 15.89-9.1z"/><path fill="#151841" d="M63.37 78.81l-24.8-13.14 10.1-20.58 24.35 10.15 7.08 13.98-16.73 9.59zM40.29 65.12l23.05 12.21 15.04-8.62-6.31-12.45-22.77-9.49-9.01 18.35z"/><path fill="#fff" d="M72.39 55.48l-9.2 22.32"/><path fill="#151841" d="M71.785 55.232l1.202.495-9.2 22.317-1.202-.495z"/><circle cx="36.44" cy="66.91" r="10.94" fill="#fff"/><path fill="#151841" d="M36.44 78.5c-6.39 0-11.59-5.2-11.59-11.59s5.2-11.59 11.59-11.59 11.59 5.2 11.59 11.59-5.2 11.59-11.59 11.59zm0-21.87c-5.67 0-10.29 4.61-10.29 10.29S30.77 77.2 36.44 77.2s10.29-4.61 10.29-10.29-4.62-10.28-10.29-10.28z"/><path fill="#fff" d="M68.84 56.72L63.46 68.8"/><path fill="#151841" d="M63.46 69.2l-.16-.03c-.2-.09-.29-.33-.2-.53l5.38-12.08c.09-.2.33-.29.53-.2.2.09.29.33.2.53l-5.38 12.08c-.08.14-.22.23-.37.23z"/><path fill="#fff" d="M66.68 55.84l-4.21 9.47"/><path fill="#151841" d="M62.47 65.71l-.16-.03c-.2-.09-.29-.33-.2-.53l4.22-9.47c.09-.2.33-.29.53-.2.2.09.29.33.2.53l-4.22 9.47c-.08.14-.22.23-.37.23z"/><path fill="#fff" d="M64.57 55.08l-3.58 7.68"/><path fill="#151841" d="M60.99 63.16l-.17-.04a.39.39 0 0 1-.19-.53l3.59-7.69c.09-.2.33-.29.53-.19.2.09.29.33.19.53l-3.59 7.69a.39.39 0 0 1-.36.23z"/><path fill="#fff" d="M59.77 36.71c-3.08 1.25-7.23 1.47-9.83 1.36l-.63-.03"/><path fill="#151841" d="M51.12 38.5a34 34 0 0 1-1.2-.02l-.64-.03a.396.396 0 0 1-.37-.43c.02-.22.23-.39.43-.37l.62.03c1.37.06 6.09.12 9.66-1.33.2-.08.44.01.52.22.08.2-.01.44-.22.52-2.99 1.21-6.72 1.41-8.8 1.41z"/><path fill="#fff" d="M59.6 39.11c-2.97 1.21-6.61 1.48-9.22 1.4"/><path fill="#151841" d="M51.2 40.92l-.84-.01a.408.408 0 0 1-.39-.41.4.4 0 0 1 .4-.39h.01c1.59.05 5.67.02 9.05-1.37.2-.08.44.01.52.22.08.2-.01.44-.22.52-3.02 1.24-6.55 1.44-8.53 1.44z"/><path fill="#fff" d="M59.41 41.65c-2.55 1.04-5.59 1.38-8.05 1.41"/><path fill="#151841" d="M51.36 43.46c-.22 0-.4-.18-.4-.4 0-.22.18-.4.4-.4 1.73-.02 5.07-.22 7.91-1.38.2-.08.44.01.52.22.08.2-.01.44-.22.52-2.97 1.21-6.42 1.42-8.21 1.44z"/><path fill="#fff" d="M28.76 71.75c1.18 1.69 5.34 4.24 10.04 3.15"/><path fill="#151841" d="M36.51 75.56c-3.9 0-7.07-2.15-8.08-3.58a.402.402 0 0 1 .66-.46c1.09 1.56 5.04 4.05 9.62 2.99.22-.05.43.08.48.3.05.22-.08.43-.3.48-.82.18-1.61.27-2.38.27z"/><path fill="#fff" d="M28.06 65.83c1.31 3.12 6 5.55 9.39 5.17"/><path fill="#151841" d="M36.7 71.44c-3.56 0-7.76-2.48-9.01-5.46-.08-.2.01-.44.21-.52.2-.09.44.01.52.21 1.2 2.86 5.65 5.3 8.98 4.93.22-.03.42.13.44.35.02.22-.13.42-.35.44-.25.04-.52.05-.79.05zm.02 1.99c-.48 0-1-.02-1.48-.09-3.4-.45-6.64-2.4-7.54-4.54-.09-.2.01-.44.21-.52.2-.09.44.01.52.21.8 1.9 3.77 3.65 6.91 4.06.75.1 1.78.1 2.84.02.25-.01.41.15.43.37.02.22-.15.41-.37.43-.36.03-.91.06-1.52.06zm12.26-27.5"/></svg>