<svg width="100" height="100" viewBox="0 0 100 100" xmlns="http://www.w3.org/2000/svg"><path fill="#A9A09F" d="M18.11 79.07L50 97.7l31.89-18.63V21.11L50 17.83l-31.89 3.28z"/><path fill="#151841" d="M50 100L16 80.14V19.5L50 16l34 3.5v60.64L50 100zM19.04 78.44L50 96.53l30.96-18.09V22.19L50 19l-30.96 3.19v56.25z"/><path fill="none" d="M21.4 62.59h.3"/><path fill="#4751A2" d="M29.06 29.58h41.93v43.86H29.06V29.58z"/><g transform="matrix(.998 0 0 .993 .126 .891)"><ellipse cx="34.86" cy="34.91" fill="#BDBEC0" rx="2.41" ry="2.39"/><path fill="#151841" d="M34.85 37.93c-1.64 0-3.01-1.38-3.01-3.01s1.38-3.01 3.01-3.01c1.64 0 3.01 1.38 3.01 3.01s-1.28 3.01-3.01 3.01zm0-4.91c-1.03 0-1.89.86-1.89 1.89s.86 1.89 1.89 1.89c1.03 0 1.89-.86 1.89-1.89s-.85-1.89-1.89-1.89z"/></g><g transform="matrix(.998 0 0 .993 .126 .891)"><ellipse cx="64.82" cy="34.91" fill="#BDBEC0" rx="2.41" ry="2.39"/><path fill="#151841" d="M64.82 37.93c-1.64 0-3.01-1.38-3.01-3.01s1.38-3.01 3.01-3.01c1.64 0 3.01 1.38 3.01 3.01s-1.37 3.01-3.01 3.01zm0-4.91c-1.03 0-1.89.86-1.89 1.89s.86 1.89 1.89 1.89c1.03 0 1.89-.86 1.89-1.89s-.86-1.89-1.89-1.89z"/></g><g transform="matrix(.998 0 0 .993 .126 .891)"><ellipse cx="64.82" cy="67.12" fill="#BDBEC0" rx="2.41" ry="2.39"/><path fill="#151841" d="M64.82 70.22c-1.64 0-3.01-1.38-3.01-3.01 0-1.64 1.38-3.01 3.01-3.01 1.64 0 3.01 1.38 3.01 3.01.01 1.63-1.37 3.01-3.01 3.01zm0-4.91c-1.03 0-1.89.86-1.89 1.89 0 1.03.86 1.89 1.89 1.89 1.03 0 1.89-.86 1.89-1.89.01-1.11-.86-1.89-1.89-1.89z"/></g><g transform="matrix(.998 0 0 .993 .126 .891)"><ellipse cx="35.03" cy="67.12" fill="#BDBEC0" rx="2.41" ry="2.39"/><path fill="#151841" d="M35.03 70.22c-1.64 0-3.01-1.38-3.01-3.01 0-1.64 1.38-3.01 3.01-3.01s3.01 1.38 3.01 3.01-1.38 3.01-3.01 3.01zm0-4.91c-1.03 0-1.89.86-1.89 1.89 0 1.03.86 1.89 1.89 1.89s1.89-.86 1.89-1.89c0-1.11-.86-1.89-1.89-1.89z"/></g><path fill="#151841" d="M32.68 36.42c1.55-.26 3.09-.34 4.55-.6.69-.17.43-1.2-.26-1.11-1.55.26-3.09.34-4.55.6-.77.17-.52 1.28.26 1.11zm30.25-2.23l2.84 3.59c.52.51 1.29-.26.77-.77l-2.84-3.59c-.52-.59-1.29.26-.77.77zm-.26 34.12l4.64-.34c.69-.09.43-1.2-.26-1.11l-4.64.34c-.77.08-.43 1.2.26 1.11zm-29.91-.85l4.38 1.37c.69.17 1.03-.86.26-1.11l-4.38-1.37c-.69-.18-.95.93-.26 1.11zm38.83 6.6H28.41V29.03h43.18v45.03zm-42-1.26h40.73V30.2H29.59v42.6z"/><path fill="#F15A29" d="M44.54 55.74l-8.51-3.51v-2.22l8.51-3.51v2.65l-5.16 1.97 5.16 1.97v2.65zm6.1-10.17h1.55l-2.75 11.29h-1.55l2.75-11.29zm4.9 7.61l5.16-1.97-5.16-1.97v-2.65l8.51 3.51v2.22l-8.51 3.51v-2.65z"/></svg>